# xmcd CD database file
#
# Track frame offsets:
#	150
#	52485
#	90975
#	133436
#	178726
#	200325
#	233221
#	258726
#
# Disc length: 3970 seconds
#
# Revision: 0
# Processed by: cddbd v1.5.2PL0 Copyright (c) Steve Scherf et al.
# Submitted via: CDex 1.50
#
DISCID=7a0f8008
DTITLE=Emmanuelle Somer - The Apple Tree
DYEAR=1997
DGENRE=Jazz
TTITLE0=Dunes De Lappes
TTITLE1=El Capitan
TTITLE2=Lullaby For A Butterfly
TTITLE3=Sveti
TTITLE4=Odd
TTITLE5=Horns and Pipes
TTITLE6=Simply
TTITLE7=Riding The Apple
EXTD=YEAR: 1997
EXTT0=
EXTT1=
EXTT2=
EXTT3=
EXTT4=
EXTT5=
EXTT6=
EXTT7=
PLAYORDER=
